<?xml version="1.0" encoding="utf-8" ?>
<svg baseProfile="tiny" height="3700" version="1.2" width="3700" xmlns="http://www.w3.org/2000/svg" xmlns:ev="http://www.w3.org/2001/xml-events" xmlns:xlink="http://www.w3.org/1999/xlink"><defs /><line stroke="rgb(38%,0%,0%)" x1="0" x2="0" y1="0" y2="100" /><line stroke="rgb(38%,0%,0%)" x1="0" x2="0" y1="100" y2="200" /><line stroke="rgb(38%,0%,0%)" x1="0" x2="0" y1="200" y2="0" /><text fill="black" x="0" y="10">PM</text><text fill="black" x="0" y="110">environment</text><text fill="black" x="0" y="210">top</text><line stroke="rgb(39%,0%,0%)" x1="100" x2="100" y1="0" y2="100" /><line stroke="rgb(39%,0%,0%)" x1="100" x2="100" y1="100" y2="200" /><line stroke="rgb(39%,0%,0%)" x1="100" x2="100" y1="200" y2="0" /><text fill="black" x="100" y="10">within</text><text fill="black" x="100" y="110">store</text><text fill="black" x="100" y="210">figure</text><line stroke="rgb(80%,0%,0%)" x1="200" x2="200" y1="0" y2="100" /><line stroke="rgb(80%,0%,0%)" x1="200" x2="200" y1="100" y2="200" /><line stroke="rgb(80%,0%,0%)" x1="200" x2="200" y1="200" y2="0" /><text fill="black" x="200" y="10">run</text><text fill="black" x="200" y="110">me</text><text fill="black" x="200" y="210">budget</text><line stroke="rgb(100%,0%,0%)" x1="300" x2="300" y1="0" y2="100" /><line stroke="rgb(100%,0%,0%)" x1="300" x2="100" y1="100" y2="200" /><line stroke="rgb(100%,0%,0%)" x1="100" x2="300" y1="200" y2="0" /><text fill="black" x="300" y="10">section</text><text fill="black" x="300" y="110">program</text><text fill="black" x="100" y="210">figure</text><line stroke="rgb(69%,0%,0%)" x1="400" x2="400" y1="0" y2="100" /><line stroke="rgb(69%,0%,0%)" x1="400" x2="300" y1="100" y2="200" /><line stroke="rgb(69%,0%,0%)" x1="300" x2="400" y1="200" y2="0" /><text fill="black" x="400" y="10">leg</text><text fill="black" x="400" y="110">near</text><text fill="black" x="300" y="210">table</text><line stroke="rgb(33%,0%,0%)" x1="500" x2="500" y1="0" y2="100" /><line stroke="rgb(33%,0%,0%)" x1="500" x2="400" y1="100" y2="200" /><line stroke="rgb(33%,0%,0%)" x1="400" x2="500" y1="200" y2="0" /><text fill="black" x="500" y="10">charge</text><text fill="black" x="500" y="110">example</text><text fill="black" x="400" y="210">hour</text><line stroke="rgb(100%,0%,0%)" x1="600" x2="600" y1="0" y2="100" /><line stroke="rgb(100%,0%,0%)" x1="600" x2="0" y1="100" y2="200" /><line stroke="rgb(100%,0%,0%)" x1="0" x2="600" y1="200" y2="0" /><text fill="black" x="600" y="10">move</text><text fill="black" x="600" y="110">lay</text><text fill="black" x="0" y="210">top</text><line stroke="rgb(100%,0%,0%)" x1="700" x2="700" y1="0" y2="100" /><line stroke="rgb(100%,0%,0%)" x1="700" x2="500" y1="100" y2="200" /><line stroke="rgb(100%,0%,0%)" x1="500" x2="700" y1="200" y2="0" /><text fill="black" x="700" y="10">popular</text><text fill="black" x="700" y="110">letter</text><text fill="black" x="500" y="210">information</text><line stroke="rgb(100%,0%,0%)" x1="800" x2="800" y1="0" y2="100" /><line stroke="rgb(100%,0%,0%)" x1="800" x2="400" y1="100" y2="200" /><line stroke="rgb(100%,0%,0%)" x1="400" x2="800" y1="200" y2="0" /><text fill="black" x="800" y="10">answer</text><text fill="black" x="800" y="110">change</text><text fill="black" x="400" y="210">hour</text><line stroke="rgb(100%,0%,0%)" x1="900" x2="700" y1="0" y2="100" /><line stroke="rgb(100%,0%,0%)" x1="700" x2="200" y1="100" y2="200" /><line stroke="rgb(100%,0%,0%)" x1="200" x2="900" y1="200" y2="0" /><text fill="black" x="900" y="10">page</text><text fill="black" x="700" y="110">letter</text><text fill="black" x="200" y="210">budget</text><line stroke="rgb(100%,0%,0%)" x1="1000" x2="900" y1="0" y2="100" /><line stroke="rgb(100%,0%,0%)" x1="900" x2="0" y1="100" y2="200" /><line stroke="rgb(100%,0%,0%)" x1="0" x2="1000" y1="200" y2="0" /><text fill="black" x="1000" y="10">safe</text><text fill="black" x="900" y="110">really</text><text fill="black" x="0" y="210">top</text><line stroke="rgb(100%,0%,0%)" x1="1100" x2="1000" y1="0" y2="100" /><line stroke="rgb(100%,0%,0%)" x1="1000" x2="600" y1="100" y2="200" /><line stroke="rgb(100%,0%,0%)" x1="600" x2="1100" y1="200" y2="0" /><text fill="black" x="1100" y="10">yourself</text><text fill="black" x="1000" y="110">debate</text><text fill="black" x="600" y="210">well</text><line stroke="rgb(100%,0%,0%)" x1="1200" x2="1000" y1="0" y2="100" /><line stroke="rgb(100%,0%,0%)" x1="1000" x2="600" y1="100" y2="200" /><line stroke="rgb(100%,0%,0%)" x1="600" x2="1200" y1="200" y2="0" /><text fill="black" x="1200" y="10">grow</text><text fill="black" x="1000" y="110">debate</text><text fill="black" x="600" y="210">well</text><line stroke="rgb(100%,0%,0%)" x1="1100" x2="1100" y1="0" y2="100" /><line stroke="rgb(100%,0%,0%)" x1="1100" x2="700" y1="100" y2="200" /><line stroke="rgb(100%,0%,0%)" x1="700" x2="1100" y1="200" y2="0" /><text fill="black" x="1100" y="10">yourself</text><text fill="black" x="1100" y="110">real</text><text fill="black" x="700" y="210">product</text><line stroke="rgb(45%,0%,0%)" x1="700" x2="1200" y1="0" y2="100" /><line stroke="rgb(45%,0%,0%)" x1="1200" x2="400" y1="100" y2="200" /><line stroke="rgb(45%,0%,0%)" x1="400" x2="700" y1="200" y2="0" /><text fill="black" x="700" y="10">popular</text><text fill="black" x="1200" y="110">somebody</text><text fill="black" x="400" y="210">hour</text><line stroke="rgb(100%,0%,0%)" x1="1300" x2="700" y1="0" y2="100" /><line stroke="rgb(100%,0%,0%)" x1="700" x2="300" y1="100" y2="200" /><line stroke="rgb(100%,0%,0%)" x1="300" x2="1300" y1="200" y2="0" /><text fill="black" x="1300" y="10">maintain</text><text fill="black" x="700" y="110">letter</text><text fill="black" x="300" y="210">table</text><line stroke="rgb(100%,0%,0%)" x1="1400" x2="1300" y1="0" y2="100" /><line stroke="rgb(100%,0%,0%)" x1="1300" x2="100" y1="100" y2="200" /><line stroke="rgb(100%,0%,0%)" x1="100" x2="1400" y1="200" y2="0" /><text fill="black" x="1400" y="10">happy</text><text fill="black" x="1300" y="110">artist</text><text fill="black" x="100" y="210">figure</text><line stroke="rgb(100%,0%,0%)" x1="1500" x2="1400" y1="0" y2="100" /><line stroke="rgb(100%,0%,0%)" x1="1400" x2="800" y1="100" y2="200" /><line stroke="rgb(100%,0%,0%)" x1="800" x2="1500" y1="200" y2="0" /><text fill="black" x="1500" y="10">trade</text><text fill="black" x="1400" y="110">people</text><text fill="black" x="800" y="210">them</text><line stroke="rgb(100%,0%,0%)" x1="600" x2="500" y1="0" y2="100" /><line stroke="rgb(100%,0%,0%)" x1="500" x2="600" y1="100" y2="200" /><line stroke="rgb(100%,0%,0%)" x1="600" x2="600" y1="200" y2="0" /><text fill="black" x="600" y="10">move</text><text fill="black" x="500" y="110">example</text><text fill="black" x="600" y="210">well</text><line stroke="rgb(100%,0%,0%)" x1="1600" x2="1500" y1="0" y2="100" /><line stroke="rgb(100%,0%,0%)" x1="1500" x2="0" y1="100" y2="200" /><line stroke="rgb(100%,0%,0%)" x1="0" x2="1600" y1="200" y2="0" /><text fill="black" x="1600" y="10">my</text><text fill="black" x="1500" y="110">group</text><text fill="black" x="0" y="210">top</text><line stroke="rgb(100%,0%,0%)" x1="1700" x2="1600" y1="0" y2="100" /><line stroke="rgb(100%,0%,0%)" x1="1600" x2="200" y1="100" y2="200" /><line stroke="rgb(100%,0%,0%)" x1="200" x2="1700" y1="200" y2="0" /><text fill="black" x="1700" y="10">office</text><text fill="black" x="1600" y="110">check</text><text fill="black" x="200" y="210">budget</text><line stroke="rgb(100%,0%,0%)" x1="300" x2="1700" y1="0" y2="100" /><line stroke="rgb(100%,0%,0%)" x1="1700" x2="300" y1="100" y2="200" /><line stroke="rgb(100%,0%,0%)" x1="300" x2="300" y1="200" y2="0" /><text fill="black" x="300" y="10">section</text><text fill="black" x="1700" y="110">read</text><text fill="black" x="300" y="210">table</text><line stroke="rgb(99%,0%,0%)" x1="1500" x2="500" y1="0" y2="100" /><line stroke="rgb(99%,0%,0%)" x1="500" x2="900" y1="100" y2="200" /><line stroke="rgb(99%,0%,0%)" x1="900" x2="1500" y1="200" y2="0" /><text fill="black" x="1500" y="10">trade</text><text fill="black" x="500" y="110">example</text><text fill="black" x="900" y="210">worker</text><line stroke="rgb(93%,0%,0%)" x1="100" x2="1800" y1="0" y2="100" /><line stroke="rgb(93%,0%,0%)" x1="1800" x2="100" y1="100" y2="200" /><line stroke="rgb(93%,0%,0%)" x1="100" x2="100" y1="200" y2="0" /><text fill="black" x="100" y="10">within</text><text fill="black" x="1800" y="110">agreement</text><text fill="black" x="100" y="210">figure</text><line stroke="rgb(100%,0%,0%)" x1="900" x2="1900" y1="0" y2="100" /><line stroke="rgb(100%,0%,0%)" x1="1900" x2="800" y1="100" y2="200" /><line stroke="rgb(100%,0%,0%)" x1="800" x2="900" y1="200" y2="0" /><text fill="black" x="900" y="10">page</text><text fill="black" x="1900" y="110">walk</text><text fill="black" x="800" y="210">them</text><line stroke="rgb(77%,0%,0%)" x1="1800" x2="800" y1="0" y2="100" /><line stroke="rgb(77%,0%,0%)" x1="800" x2="800" y1="100" y2="200" /><line stroke="rgb(77%,0%,0%)" x1="800" x2="1800" y1="200" y2="0" /><text fill="black" x="1800" y="10">join</text><text fill="black" x="800" y="110">change</text><text fill="black" x="800" y="210">them</text><line stroke="rgb(100%,0%,0%)" x1="1300" x2="900" y1="0" y2="100" /><line stroke="rgb(100%,0%,0%)" x1="900" x2="700" y1="100" y2="200" /><line stroke="rgb(100%,0%,0%)" x1="700" x2="1300" y1="200" y2="0" /><text fill="black" x="1300" y="10">maintain</text><text fill="black" x="900" y="110">really</text><text fill="black" x="700" y="210">product</text><line stroke="rgb(100%,0%,0%)" x1="1900" x2="2000" y1="0" y2="100" /><line stroke="rgb(100%,0%,0%)" x1="2000" x2="800" y1="100" y2="200" /><line stroke="rgb(100%,0%,0%)" x1="800" x2="1900" y1="200" y2="0" /><text fill="black" x="1900" y="10">in</text><text fill="black" x="2000" y="110">democratic</text><text fill="black" x="800" y="210">them</text><line stroke="rgb(100%,0%,0%)" x1="2000" x2="1100" y1="0" y2="100" /><line stroke="rgb(100%,0%,0%)" x1="1100" x2="500" y1="100" y2="200" /><line stroke="rgb(100%,0%,0%)" x1="500" x2="2000" y1="200" y2="0" /><text fill="black" x="2000" y="10">responsibility</text><text fill="black" x="1100" y="110">real</text><text fill="black" x="500" y="210">information</text><line stroke="rgb(57%,0%,0%)" x1="400" x2="100" y1="0" y2="100" /><line stroke="rgb(57%,0%,0%)" x1="100" x2="400" y1="100" y2="200" /><line stroke="rgb(57%,0%,0%)" x1="400" x2="400" y1="200" y2="0" /><text fill="black" x="400" y="10">leg</text><text fill="black" x="100" y="110">store</text><text fill="black" x="400" y="210">hour</text><line stroke="rgb(100%,0%,0%)" x1="1700" x2="300" y1="0" y2="100" /><line stroke="rgb(100%,0%,0%)" x1="300" x2="400" y1="100" y2="200" /><line stroke="rgb(100%,0%,0%)" x1="400" x2="1700" y1="200" y2="0" /><text fill="black" x="1700" y="10">office</text><text fill="black" x="300" y="110">program</text><text fill="black" x="400" y="210">hour</text><line stroke="rgb(100%,0%,0%)" x1="200" x2="400" y1="0" y2="100" /><line stroke="rgb(100%,0%,0%)" x1="400" x2="400" y1="100" y2="200" /><line stroke="rgb(100%,0%,0%)" x1="400" x2="200" y1="200" y2="0" /><text fill="black" x="200" y="10">run</text><text fill="black" x="400" y="110">near</text><text fill="black" x="400" y="210">hour</text><line stroke="rgb(100%,0%,0%)" x1="1500" x2="1800" y1="0" y2="100" /><line stroke="rgb(100%,0%,0%)" x1="1800" x2="600" y1="100" y2="200" /><line stroke="rgb(100%,0%,0%)" x1="600" x2="1500" y1="200" y2="0" /><text fill="black" x="1500" y="10">trade</text><text fill="black" x="1800" y="110">agreement</text><text fill="black" x="600" y="210">well</text><line stroke="rgb(78%,0%,0%)" x1="600" x2="200" y1="0" y2="100" /><line stroke="rgb(78%,0%,0%)" x1="200" x2="0" y1="100" y2="200" /><line stroke="rgb(78%,0%,0%)" x1="0" x2="600" y1="200" y2="0" /><text fill="black" x="600" y="10">move</text><text fill="black" x="200" y="110">me</text><text fill="black" x="0" y="210">top</text><line stroke="rgb(100%,0%,0%)" x1="1200" x2="2100" y1="0" y2="100" /><line stroke="rgb(100%,0%,0%)" x1="2100" x2="600" y1="100" y2="200" /><line stroke="rgb(100%,0%,0%)" x1="600" x2="1200" y1="200" y2="0" /><text fill="black" x="1200" y="10">grow</text><text fill="black" x="2100" y="110">career</text><text fill="black" x="600" y="210">well</text><line stroke="rgb(100%,0%,0%)" x1="1400" x2="1500" y1="0" y2="100" /><line stroke="rgb(100%,0%,0%)" x1="1500" x2="100" y1="100" y2="200" /><line stroke="rgb(100%,0%,0%)" x1="100" x2="1400" y1="200" y2="0" /><text fill="black" x="1400" y="10">happy</text><text fill="black" x="1500" y="110">group</text><text fill="black" x="100" y="210">figure</text><line stroke="rgb(89%,0%,0%)" x1="1100" x2="2200" y1="0" y2="100" /><line stroke="rgb(89%,0%,0%)" x1="2200" x2="300" y1="100" y2="200" /><line stroke="rgb(89%,0%,0%)" x1="300" x2="1100" y1="200" y2="0" /><text fill="black" x="1100" y="10">yourself</text><text fill="black" x="2200" y="110">same</text><text fill="black" x="300" y="210">table</text><line stroke="rgb(100%,0%,0%)" x1="2100" x2="1900" y1="0" y2="100" /><line stroke="rgb(100%,0%,0%)" x1="1900" x2="0" y1="100" y2="200" /><line stroke="rgb(100%,0%,0%)" x1="0" x2="2100" y1="200" y2="0" /><text fill="black" x="2100" y="10">action</text><text fill="black" x="1900" y="110">walk</text><text fill="black" x="0" y="210">top</text><line stroke="rgb(89%,0%,0%)" x1="0" x2="700" y1="0" y2="100" /><line stroke="rgb(89%,0%,0%)" x1="700" x2="500" y1="100" y2="200" /><line stroke="rgb(89%,0%,0%)" x1="500" x2="0" y1="200" y2="0" /><text fill="black" x="0" y="10">PM</text><text fill="black" x="700" y="110">letter</text><text fill="black" x="500" y="210">information</text><line stroke="rgb(100%,0%,0%)" x1="1300" x2="2300" y1="0" y2="100" /><line stroke="rgb(100%,0%,0%)" x1="2300" x2="800" y1="100" y2="200" /><line stroke="rgb(100%,0%,0%)" x1="800" x2="1300" y1="200" y2="0" /><text fill="black" x="1300" y="10">maintain</text><text fill="black" x="2300" y="110">suffer</text><text fill="black" x="800" y="210">them</text><line stroke="rgb(1%,0%,0%)" x1="1600" x2="2400" y1="0" y2="100" /><line stroke="rgb(1%,0%,0%)" x1="2400" x2="500" y1="100" y2="200" /><line stroke="rgb(1%,0%,0%)" x1="500" x2="1600" y1="200" y2="0" /><text fill="black" x="1600" y="10">my</text><text fill="black" x="2400" y="110">they</text><text fill="black" x="500" y="210">information</text><line stroke="rgb(100%,0%,0%)" x1="700" x2="2500" y1="0" y2="100" /><line stroke="rgb(100%,0%,0%)" x1="2500" x2="900" y1="100" y2="200" /><line stroke="rgb(100%,0%,0%)" x1="900" x2="700" y1="200" y2="0" /><text fill="black" x="700" y="10">popular</text><text fill="black" x="2500" y="110">less</text><text fill="black" x="900" y="210">worker</text><line stroke="rgb(45%,0%,0%)" x1="100" x2="800" y1="0" y2="100" /><line stroke="rgb(45%,0%,0%)" x1="800" x2="400" y1="100" y2="200" /><line stroke="rgb(45%,0%,0%)" x1="400" x2="100" y1="200" y2="0" /><text fill="black" x="100" y="10">within</text><text fill="black" x="800" y="110">change</text><text fill="black" x="400" y="210">hour</text><line stroke="rgb(100%,0%,0%)" x1="1600" x2="500" y1="0" y2="100" /><line stroke="rgb(100%,0%,0%)" x1="500" x2="0" y1="100" y2="200" /><line stroke="rgb(100%,0%,0%)" x1="0" x2="1600" y1="200" y2="0" /><text fill="black" x="1600" y="10">my</text><text fill="black" x="500" y="110">example</text><text fill="black" x="0" y="210">top</text><line stroke="rgb(100%,0%,0%)" x1="1100" x2="2000" y1="0" y2="100" /><line stroke="rgb(100%,0%,0%)" x1="2000" x2="800" y1="100" y2="200" /><line stroke="rgb(100%,0%,0%)" x1="800" x2="1100" y1="200" y2="0" /><text fill="black" x="1100" y="10">yourself</text><text fill="black" x="2000" y="110">democratic</text><text fill="black" x="800" y="210">them</text><line stroke="rgb(13%,0%,0%)" x1="1800" x2="1100" y1="0" y2="100" /><line stroke="rgb(13%,0%,0%)" x1="1100" x2="300" y1="100" y2="200" /><line stroke="rgb(13%,0%,0%)" x1="300" x2="1800" y1="200" y2="0" /><text fill="black" x="1800" y="10">join</text><text fill="black" x="1100" y="110">real</text><text fill="black" x="300" y="210">table</text><line stroke="rgb(100%,0%,0%)" x1="2200" x2="800" y1="0" y2="100" /><line stroke="rgb(100%,0%,0%)" x1="800" x2="400" y1="100" y2="200" /><line stroke="rgb(100%,0%,0%)" x1="400" x2="2200" y1="200" y2="0" /><text fill="black" x="2200" y="10">truth</text><text fill="black" x="800" y="110">change</text><text fill="black" x="400" y="210">hour</text><line stroke="rgb(100%,0%,0%)" x1="1400" x2="1100" y1="0" y2="100" /><line stroke="rgb(100%,0%,0%)" x1="1100" x2="100" y1="100" y2="200" /><line stroke="rgb(100%,0%,0%)" x1="100" x2="1400" y1="200" y2="0" /><text fill="black" x="1400" y="10">happy</text><text fill="black" x="1100" y="110">real</text><text fill="black" x="100" y="210">figure</text><line stroke="rgb(100%,0%,0%)" x1="800" x2="2100" y1="0" y2="100" /><line stroke="rgb(100%,0%,0%)" x1="2100" x2="500" y1="100" y2="200" /><line stroke="rgb(100%,0%,0%)" x1="500" x2="800" y1="200" y2="0" /><text fill="black" x="800" y="10">answer</text><text fill="black" x="2100" y="110">career</text><text fill="black" x="500" y="210">information</text><line stroke="rgb(100%,0%,0%)" x1="1600" x2="2600" y1="0" y2="100" /><line stroke="rgb(100%,0%,0%)" x1="2600" x2="500" y1="100" y2="200" /><line stroke="rgb(100%,0%,0%)" x1="500" x2="1600" y1="200" y2="0" /><text fill="black" x="1600" y="10">my</text><text fill="black" x="2600" y="110">floor</text><text fill="black" x="500" y="210">information</text><line stroke="rgb(100%,0%,0%)" x1="2300" x2="2700" y1="0" y2="100" /><line stroke="rgb(100%,0%,0%)" x1="2700" x2="0" y1="100" y2="200" /><line stroke="rgb(100%,0%,0%)" x1="0" x2="2300" y1="200" y2="0" /><text fill="black" x="2300" y="10">college</text><text fill="black" x="2700" y="110">control</text><text fill="black" x="0" y="210">top</text><line stroke="rgb(100%,0%,0%)" x1="700" x2="1500" y1="0" y2="100" /><line stroke="rgb(100%,0%,0%)" x1="1500" x2="0" y1="100" y2="200" /><line stroke="rgb(100%,0%,0%)" x1="0" x2="700" y1="200" y2="0" /><text fill="black" x="700" y="10">popular</text><text fill="black" x="1500" y="110">group</text><text fill="black" x="0" y="210">top</text><line stroke="rgb(100%,0%,0%)" x1="2400" x2="2000" y1="0" y2="100" /><line stroke="rgb(100%,0%,0%)" x1="2000" x2="300" y1="100" y2="200" /><line stroke="rgb(100%,0%,0%)" x1="300" x2="2400" y1="200" y2="0" /><text fill="black" x="2400" y="10">professor</text><text fill="black" x="2000" y="110">democratic</text><text fill="black" x="300" y="210">table</text><line stroke="rgb(100%,0%,0%)" x1="2500" x2="2600" y1="0" y2="100" /><line stroke="rgb(100%,0%,0%)" x1="2600" x2="0" y1="100" y2="200" /><line stroke="rgb(100%,0%,0%)" x1="0" x2="2500" y1="200" y2="0" /><text fill="black" x="2500" y="10">network</text><text fill="black" x="2600" y="110">floor</text><text fill="black" x="0" y="210">top</text><line stroke="rgb(36%,0%,0%)" x1="1500" x2="2400" y1="0" y2="100" /><line stroke="rgb(36%,0%,0%)" x1="2400" x2="400" y1="100" y2="200" /><line stroke="rgb(36%,0%,0%)" x1="400" x2="1500" y1="200" y2="0" /><text fill="black" x="1500" y="10">trade</text><text fill="black" x="2400" y="110">they</text><text fill="black" x="400" y="210">hour</text><line stroke="rgb(100%,0%,0%)" x1="2400" x2="900" y1="0" y2="100" /><line stroke="rgb(100%,0%,0%)" x1="900" x2="300" y1="100" y2="200" /><line stroke="rgb(100%,0%,0%)" x1="300" x2="2400" y1="200" y2="0" /><text fill="black" x="2400" y="10">professor</text><text fill="black" x="900" y="110">really</text><text fill="black" x="300" y="210">table</text><line stroke="rgb(100%,0%,0%)" x1="1600" x2="1300" y1="0" y2="100" /><line stroke="rgb(100%,0%,0%)" x1="1300" x2="600" y1="100" y2="200" /><line stroke="rgb(100%,0%,0%)" x1="600" x2="1600" y1="200" y2="0" /><text fill="black" x="1600" y="10">my</text><text fill="black" x="1300" y="110">artist</text><text fill="black" x="600" y="210">well</text><line stroke="rgb(100%,0%,0%)" x1="1800" x2="2800" y1="0" y2="100" /><line stroke="rgb(100%,0%,0%)" x1="2800" x2="600" y1="100" y2="200" /><line stroke="rgb(100%,0%,0%)" x1="600" x2="1800" y1="200" y2="0" /><text fill="black" x="1800" y="10">join</text><text fill="black" x="2800" y="110">full</text><text fill="black" x="600" y="210">well</text><line stroke="rgb(100%,0%,0%)" x1="2200" x2="500" y1="0" y2="100" /><line stroke="rgb(100%,0%,0%)" x1="500" x2="0" y1="100" y2="200" /><line stroke="rgb(100%,0%,0%)" x1="0" x2="2200" y1="200" y2="0" /><text fill="black" x="2200" y="10">truth</text><text fill="black" x="500" y="110">example</text><text fill="black" x="0" y="210">top</text><line stroke="rgb(100%,0%,0%)" x1="600" x2="1300" y1="0" y2="100" /><line stroke="rgb(100%,0%,0%)" x1="1300" x2="600" y1="100" y2="200" /><line stroke="rgb(100%,0%,0%)" x1="600" x2="600" y1="200" y2="0" /><text fill="black" x="600" y="10">move</text><text fill="black" x="1300" y="110">artist</text><text fill="black" x="600" y="210">well</text><line stroke="rgb(100%,0%,0%)" x1="900" x2="2900" y1="0" y2="100" /><line stroke="rgb(100%,0%,0%)" x1="2900" x2="0" y1="100" y2="200" /><line stroke="rgb(100%,0%,0%)" x1="0" x2="900" y1="200" y2="0" /><text fill="black" x="900" y="10">page</text><text fill="black" x="2900" y="110">detail</text><text fill="black" x="0" y="210">top</text><line stroke="rgb(100%,0%,0%)" x1="600" x2="2400" y1="0" y2="100" /><line stroke="rgb(100%,0%,0%)" x1="2400" x2="700" y1="100" y2="200" /><line stroke="rgb(100%,0%,0%)" x1="700" x2="600" y1="200" y2="0" /><text fill="black" x="600" y="10">move</text><text fill="black" x="2400" y="110">they</text><text fill="black" x="700" y="210">product</text><line stroke="rgb(15%,0%,0%)" x1="2100" x2="2600" y1="0" y2="100" /><line stroke="rgb(15%,0%,0%)" x1="2600" x2="0" y1="100" y2="200" /><line stroke="rgb(15%,0%,0%)" x1="0" x2="2100" y1="200" y2="0" /><text fill="black" x="2100" y="10">action</text><text fill="black" x="2600" y="110">floor</text><text fill="black" x="0" y="210">top</text><line stroke="rgb(100%,0%,0%)" x1="2000" x2="400" y1="0" y2="100" /><line stroke="rgb(100%,0%,0%)" x1="400" x2="600" y1="100" y2="200" /><line stroke="rgb(100%,0%,0%)" x1="600" x2="2000" y1="200" y2="0" /><text fill="black" x="2000" y="10">responsibility</text><text fill="black" x="400" y="110">near</text><text fill="black" x="600" y="210">well</text><line stroke="rgb(11%,0%,0%)" x1="1500" x2="2400" y1="0" y2="100" /><line stroke="rgb(11%,0%,0%)" x1="2400" x2="200" y1="100" y2="200" /><line stroke="rgb(11%,0%,0%)" x1="200" x2="1500" y1="200" y2="0" /><text fill="black" x="1500" y="10">trade</text><text fill="black" x="2400" y="110">they</text><text fill="black" x="200" y="210">budget</text><line stroke="rgb(83%,0%,0%)" x1="500" x2="1900" y1="0" y2="100" /><line stroke="rgb(83%,0%,0%)" x1="1900" x2="300" y1="100" y2="200" /><line stroke="rgb(83%,0%,0%)" x1="300" x2="500" y1="200" y2="0" /><text fill="black" x="500" y="10">charge</text><text fill="black" x="1900" y="110">walk</text><text fill="black" x="300" y="210">table</text><line stroke="rgb(75%,0%,0%)" x1="2200" x2="200" y1="0" y2="100" /><line stroke="rgb(75%,0%,0%)" x1="200" x2="600" y1="100" y2="200" /><line stroke="rgb(75%,0%,0%)" x1="600" x2="2200" y1="200" y2="0" /><text fill="black" x="2200" y="10">truth</text><text fill="black" x="200" y="110">me</text><text fill="black" x="600" y="210">well</text><line stroke="rgb(100%,0%,0%)" x1="1500" x2="3000" y1="0" y2="100" /><line stroke="rgb(100%,0%,0%)" x1="3000" x2="200" y1="100" y2="200" /><line stroke="rgb(100%,0%,0%)" x1="200" x2="1500" y1="200" y2="0" /><text fill="black" x="1500" y="10">trade</text><text fill="black" x="3000" y="110">simply</text><text fill="black" x="200" y="210">budget</text><line stroke="rgb(100%,0%,0%)" x1="1700" x2="300" y1="0" y2="100" /><line stroke="rgb(100%,0%,0%)" x1="300" x2="600" y1="100" y2="200" /><line stroke="rgb(100%,0%,0%)" x1="600" x2="1700" y1="200" y2="0" /><text fill="black" x="1700" y="10">office</text><text fill="black" x="300" y="110">program</text><text fill="black" x="600" y="210">well</text><line stroke="rgb(100%,0%,0%)" x1="2000" x2="1700" y1="0" y2="100" /><line stroke="rgb(100%,0%,0%)" x1="1700" x2="0" y1="100" y2="200" /><line stroke="rgb(100%,0%,0%)" x1="0" x2="2000" y1="200" y2="0" /><text fill="black" x="2000" y="10">responsibility</text><text fill="black" x="1700" y="110">read</text><text fill="black" x="0" y="210">top</text><line stroke="rgb(44%,0%,0%)" x1="800" x2="0" y1="0" y2="100" /><line stroke="rgb(44%,0%,0%)" x1="0" x2="500" y1="100" y2="200" /><line stroke="rgb(44%,0%,0%)" x1="500" x2="800" y1="200" y2="0" /><text fill="black" x="800" y="10">answer</text><text fill="black" x="0" y="110">environment</text><text fill="black" x="500" y="210">information</text><line stroke="rgb(94%,0%,0%)" x1="1300" x2="800" y1="0" y2="100" /><line stroke="rgb(94%,0%,0%)" x1="800" x2="100" y1="100" y2="200" /><line stroke="rgb(94%,0%,0%)" x1="100" x2="1300" y1="200" y2="0" /><text fill="black" x="1300" y="10">maintain</text><text fill="black" x="800" y="110">change</text><text fill="black" x="100" y="210">figure</text><line stroke="rgb(100%,0%,0%)" x1="2000" x2="1700" y1="0" y2="100" /><line stroke="rgb(100%,0%,0%)" x1="1700" x2="700" y1="100" y2="200" /><line stroke="rgb(100%,0%,0%)" x1="700" x2="2000" y1="200" y2="0" /><text fill="black" x="2000" y="10">responsibility</text><text fill="black" x="1700" y="110">read</text><text fill="black" x="700" y="210">product</text><line stroke="rgb(100%,0%,0%)" x1="2500" x2="3100" y1="0" y2="100" /><line stroke="rgb(100%,0%,0%)" x1="3100" x2="300" y1="100" y2="200" /><line stroke="rgb(100%,0%,0%)" x1="300" x2="2500" y1="200" y2="0" /><text fill="black" x="2500" y="10">network</text><text fill="black" x="3100" y="110">final</text><text fill="black" x="300" y="210">table</text><line stroke="rgb(100%,0%,0%)" x1="1400" x2="100" y1="0" y2="100" /><line stroke="rgb(100%,0%,0%)" x1="100" x2="300" y1="100" y2="200" /><line stroke="rgb(100%,0%,0%)" x1="300" x2="1400" y1="200" y2="0" /><text fill="black" x="1400" y="10">happy</text><text fill="black" x="100" y="110">store</text><text fill="black" x="300" y="210">table</text><line stroke="rgb(100%,0%,0%)" x1="900" x2="3200" y1="0" y2="100" /><line stroke="rgb(100%,0%,0%)" x1="3200" x2="900" y1="100" y2="200" /><line stroke="rgb(100%,0%,0%)" x1="900" x2="900" y1="200" y2="0" /><text fill="black" x="900" y="10">page</text><text fill="black" x="3200" y="110">common</text><text fill="black" x="900" y="210">worker</text><line stroke="rgb(100%,0%,0%)" x1="700" x2="2500" y1="0" y2="100" /><line stroke="rgb(100%,0%,0%)" x1="2500" x2="800" y1="100" y2="200" /><line stroke="rgb(100%,0%,0%)" x1="800" x2="700" y1="200" y2="0" /><text fill="black" x="700" y="10">popular</text><text fill="black" x="2500" y="110">less</text><text fill="black" x="800" y="210">them</text><line stroke="rgb(100%,0%,0%)" x1="300" x2="0" y1="0" y2="100" /><line stroke="rgb(100%,0%,0%)" x1="0" x2="200" y1="100" y2="200" /><line stroke="rgb(100%,0%,0%)" x1="200" x2="300" y1="200" y2="0" /><text fill="black" x="300" y="10">section</text><text fill="black" x="0" y="110">environment</text><text fill="black" x="200" y="210">budget</text><line stroke="rgb(100%,0%,0%)" x1="1800" x2="2300" y1="0" y2="100" /><line stroke="rgb(100%,0%,0%)" x1="2300" x2="700" y1="100" y2="200" /><line stroke="rgb(100%,0%,0%)" x1="700" x2="1800" y1="200" y2="0" /><text fill="black" x="1800" y="10">join</text><text fill="black" x="2300" y="110">suffer</text><text fill="black" x="700" y="210">product</text><line stroke="rgb(100%,0%,0%)" x1="2200" x2="1400" y1="0" y2="100" /><line stroke="rgb(100%,0%,0%)" x1="1400" x2="200" y1="100" y2="200" /><line stroke="rgb(100%,0%,0%)" x1="200" x2="2200" y1="200" y2="0" /><text fill="black" x="2200" y="10">truth</text><text fill="black" x="1400" y="110">people</text><text fill="black" x="200" y="210">budget</text><line stroke="rgb(100%,0%,0%)" x1="1400" x2="3300" y1="0" y2="100" /><line stroke="rgb(100%,0%,0%)" x1="3300" x2="300" y1="100" y2="200" /><line stroke="rgb(100%,0%,0%)" x1="300" x2="1400" y1="200" y2="0" /><text fill="black" x="1400" y="10">happy</text><text fill="black" x="3300" y="110">practice</text><text fill="black" x="300" y="210">table</text><line stroke="rgb(44%,0%,0%)" x1="1900" x2="900" y1="0" y2="100" /><line stroke="rgb(44%,0%,0%)" x1="900" x2="600" y1="100" y2="200" /><line stroke="rgb(44%,0%,0%)" x1="600" x2="1900" y1="200" y2="0" /><text fill="black" x="1900" y="10">in</text><text fill="black" x="900" y="110">really</text><text fill="black" x="600" y="210">well</text><line stroke="rgb(100%,0%,0%)" x1="2600" x2="3100" y1="0" y2="100" /><line stroke="rgb(100%,0%,0%)" x1="3100" x2="200" y1="100" y2="200" /><line stroke="rgb(100%,0%,0%)" x1="200" x2="2600" y1="200" y2="0" /><text fill="black" x="2600" y="10">color</text><text fill="black" x="3100" y="110">final</text><text fill="black" x="200" y="210">budget</text><line stroke="rgb(100%,0%,0%)" x1="700" x2="1200" y1="0" y2="100" /><line stroke="rgb(100%,0%,0%)" x1="1200" x2="100" y1="100" y2="200" /><line stroke="rgb(100%,0%,0%)" x1="100" x2="700" y1="200" y2="0" /><text fill="black" x="700" y="10">popular</text><text fill="black" x="1200" y="110">somebody</text><text fill="black" x="100" y="210">figure</text><line stroke="rgb(100%,0%,0%)" x1="1500" x2="3300" y1="0" y2="100" /><line stroke="rgb(100%,0%,0%)" x1="3300" x2="400" y1="100" y2="200" /><line stroke="rgb(100%,0%,0%)" x1="400" x2="1500" y1="200" y2="0" /><text fill="black" x="1500" y="10">trade</text><text fill="black" x="3300" y="110">practice</text><text fill="black" x="400" y="210">hour</text><line stroke="rgb(100%,0%,0%)" x1="200" x2="3000" y1="0" y2="100" /><line stroke="rgb(100%,0%,0%)" x1="3000" x2="500" y1="100" y2="200" /><line stroke="rgb(100%,0%,0%)" x1="500" x2="200" y1="200" y2="0" /><text fill="black" x="200" y="10">run</text><text fill="black" x="3000" y="110">simply</text><text fill="black" x="500" y="210">information</text><line stroke="rgb(100%,0%,0%)" x1="800" x2="1500" y1="0" y2="100" /><line stroke="rgb(100%,0%,0%)" x1="1500" x2="700" y1="100" y2="200" /><line stroke="rgb(100%,0%,0%)" x1="700" x2="800" y1="200" y2="0" /><text fill="black" x="800" y="10">answer</text><text fill="black" x="1500" y="110">group</text><text fill="black" x="700" y="210">product</text><line stroke="rgb(100%,0%,0%)" x1="2300" x2="3400" y1="0" y2="100" /><line stroke="rgb(100%,0%,0%)" x1="3400" x2="600" y1="100" y2="200" /><line stroke="rgb(100%,0%,0%)" x1="600" x2="2300" y1="200" y2="0" /><text fill="black" x="2300" y="10">college</text><text fill="black" x="3400" y="110">present</text><text fill="black" x="600" y="210">well</text><line stroke="rgb(17%,0%,0%)" x1="700" x2="2500" y1="0" y2="100" /><line stroke="rgb(17%,0%,0%)" x1="2500" x2="500" y1="100" y2="200" /><line stroke="rgb(17%,0%,0%)" x1="500" x2="700" y1="200" y2="0" /><text fill="black" x="700" y="10">popular</text><text fill="black" x="2500" y="110">less</text><text fill="black" x="500" y="210">information</text><line stroke="rgb(74%,0%,0%)" x1="2600" x2="1400" y1="0" y2="100" /><line stroke="rgb(74%,0%,0%)" x1="1400" x2="0" y1="100" y2="200" /><line stroke="rgb(74%,0%,0%)" x1="0" x2="2600" y1="200" y2="0" /><text fill="black" x="2600" y="10">color</text><text fill="black" x="1400" y="110">people</text><text fill="black" x="0" y="210">top</text><line stroke="rgb(34%,0%,0%)" x1="500" x2="1700" y1="0" y2="100" /><line stroke="rgb(34%,0%,0%)" x1="1700" x2="200" y1="100" y2="200" /><line stroke="rgb(34%,0%,0%)" x1="200" x2="500" y1="200" y2="0" /><text fill="black" x="500" y="10">charge</text><text fill="black" x="1700" y="110">read</text><text fill="black" x="200" y="210">budget</text><line stroke="rgb(100%,0%,0%)" x1="2200" x2="3500" y1="0" y2="100" /><line stroke="rgb(100%,0%,0%)" x1="3500" x2="300" y1="100" y2="200" /><line stroke="rgb(100%,0%,0%)" x1="300" x2="2200" y1="200" y2="0" /><text fill="black" x="2200" y="10">truth</text><text fill="black" x="3500" y="110">understand</text><text fill="black" x="300" y="210">table</text><line stroke="rgb(100%,0%,0%)" x1="100" x2="3400" y1="0" y2="100" /><line stroke="rgb(100%,0%,0%)" x1="3400" x2="700" y1="100" y2="200" /><line stroke="rgb(100%,0%,0%)" x1="700" x2="100" y1="200" y2="0" /><text fill="black" x="100" y="10">within</text><text fill="black" x="3400" y="110">present</text><text fill="black" x="700" y="210">product</text><line stroke="rgb(45%,0%,0%)" x1="800" x2="2100" y1="0" y2="100" /><line stroke="rgb(45%,0%,0%)" x1="2100" x2="0" y1="100" y2="200" /><line stroke="rgb(45%,0%,0%)" x1="0" x2="800" y1="200" y2="0" /><text fill="black" x="800" y="10">answer</text><text fill="black" x="2100" y="110">career</text><text fill="black" x="0" y="210">top</text><line stroke="rgb(82%,0%,0%)" x1="600" x2="800" y1="0" y2="100" /><line stroke="rgb(82%,0%,0%)" x1="800" x2="500" y1="100" y2="200" /><line stroke="rgb(82%,0%,0%)" x1="500" x2="600" y1="200" y2="0" /><text fill="black" x="600" y="10">move</text><text fill="black" x="800" y="110">change</text><text fill="black" x="500" y="210">information</text><line stroke="rgb(100%,0%,0%)" x1="200" x2="1600" y1="0" y2="100" /><line stroke="rgb(100%,0%,0%)" x1="1600" x2="0" y1="100" y2="200" /><line stroke="rgb(100%,0%,0%)" x1="0" x2="200" y1="200" y2="0" /><text fill="black" x="200" y="10">run</text><text fill="black" x="1600" y="110">check</text><text fill="black" x="0" y="210">top</text><line stroke="rgb(100%,0%,0%)" x1="1100" x2="3600" y1="0" y2="100" /><line stroke="rgb(100%,0%,0%)" x1="3600" x2="300" y1="100" y2="200" /><line stroke="rgb(100%,0%,0%)" x1="300" x2="1100" y1="200" y2="0" /><text fill="black" x="1100" y="10">yourself</text><text fill="black" x="3600" y="110">share</text><text fill="black" x="300" y="210">table</text><line stroke="rgb(100%,0%,0%)" x1="1200" x2="900" y1="0" y2="100" /><line stroke="rgb(100%,0%,0%)" x1="900" x2="200" y1="100" y2="200" /><line stroke="rgb(100%,0%,0%)" x1="200" x2="1200" y1="200" y2="0" /><text fill="black" x="1200" y="10">grow</text><text fill="black" x="900" y="110">really</text><text fill="black" x="200" y="210">budget</text><line stroke="rgb(100%,0%,0%)" x1="2300" x2="400" y1="0" y2="100" /><line stroke="rgb(100%,0%,0%)" x1="400" x2="800" y1="100" y2="200" /><line stroke="rgb(100%,0%,0%)" x1="800" x2="2300" y1="200" y2="0" /><text fill="black" x="2300" y="10">college</text><text fill="black" x="400" y="110">near</text><text fill="black" x="800" y="210">them</text><line stroke="rgb(100%,0%,0%)" x1="1600" x2="1700" y1="0" y2="100" /><line stroke="rgb(100%,0%,0%)" x1="1700" x2="500" y1="100" y2="200" /><line stroke="rgb(100%,0%,0%)" x1="500" x2="1600" y1="200" y2="0" /><text fill="black" x="1600" y="10">my</text><text fill="black" x="1700" y="110">read</text><text fill="black" x="500" y="210">information</text></svg>